<svg xmlns="http://www.w3.org/2000/svg" width="256" height="256" viewBox="0 0 256 256">
<defs><linearGradient id="grad1" gradientUnits="userSpaceOnUse" x1="0" y1="0" x2="64" y2="85.333" spreadMethod="pad"><stop offset="0" stop-color="#ff0000" stop-opacity="1"/><stop offset="0.2" stop-color="#ffb400" stop-opacity="1"/><stop offset="0.4" stop-color="#ffff00" stop-opacity="1"/><stop offset="0.6" stop-color="#00ff00" stop-opacity="1"/><stop offset="0.8" stop-color="#00b4ff" stop-opacity="1"/><stop offset="1" stop-color="#b400ff" stop-opacity="1"/></linearGradient><linearGradient id="grad2" gradientUnits="userSpaceOnUse" x1="0" y1="0" x2="1" y2="0" spreadMethod="pad"><stop offset="0" stop-color="#ff0000" stop-opacity="1"/><stop offset="0.25" stop-color="#ffff00" stop-opacity="1"/><stop offset="0.5" stop-color="#00ff00" stop-opacity="1"/><stop offset="0.75" stop-color="#0000ff" stop-opacity="1"/><stop offset="1" stop-color="#ff0000" stop-opacity="1"/></linearGradient><linearGradient id="grad3" gradientUnits="userSpaceOnUse" x1="64" y1="0" x2="128" y2="85.333" spreadMethod="pad"><stop offset="0" stop-color="#ff0000" stop-opacity="1"/><stop offset="0.2" stop-color="#ffb400" stop-opacity="1"/><stop offset="0.4" stop-color="#ffff00" stop-opacity="1"/><stop offset="0.6" stop-color="#00ff00" stop-opacity="1"/><stop offset="0.8" stop-color="#00b4ff" stop-opacity="1"/><stop offset="1" stop-color="#b400ff" stop-opacity="1"/></linearGradient><linearGradient id="grad4" gradientUnits="userSpaceOnUse" x1="0" y1="0" x2="1" y2="0" spreadMethod="pad"><stop offset="0" stop-color="#ff0000" stop-opacity="1"/><stop offset="0.25" stop-color="#ffff00" stop-opacity="1"/><stop offset="0.5" stop-color="#00ff00" stop-opacity="1"/><stop offset="0.75" stop-color="#0000ff" stop-opacity="1"/><stop offset="1" stop-color="#ff0000" stop-opacity="1"/></linearGradient><linearGradient id="grad5" gradientUnits="userSpaceOnUse" x1="128" y1="0" x2="192" y2="85.333" spreadMethod="pad"><stop offset="0" stop-color="#ff0000" stop-opacity="1"/><stop offset="0.2" stop-color="#ffb400" stop-opacity="1"/><stop offset="0.4" stop-color="#ffff00" stop-opacity="1"/><stop offset="0.6" stop-color="#00ff00" stop-opacity="1"/><stop offset="0.8" stop-color="#00b4ff" stop-opacity="1"/><stop offset="1" stop-color="#b400ff" stop-opacity="1"/></linearGradient><linearGradient id="grad6" gradientUnits="userSpaceOnUse" x1="0" y1="0" x2="1" y2="0" spreadMethod="pad"><stop offset="0" stop-color="#ff0000" stop-opacity="0.9"/><stop offset="0.25" stop-color="#ffff00" stop-opacity="0.9"/><stop offset="0.5" stop-color="#00ff00" stop-opacity="0.9"/><stop offset="0.75" stop-color="#0000ff" stop-opacity="0.9"/><stop offset="1" stop-color="#ff0000" stop-opacity="0.9"/></linearGradient><linearGradient id="grad7" gradientUnits="userSpaceOnUse" x1="192" y1="0" x2="256" y2="85.333" spreadMethod="pad"><stop offset="0" stop-color="#ff0000" stop-opacity="1"/><stop offset="0.2" stop-color="#ffb400" stop-opacity="1"/><stop offset="0.4" stop-color="#ffff00" stop-opacity="1"/><stop offset="0.6" stop-color="#00ff00" stop-opacity="1"/><stop offset="0.8" stop-color="#00b4ff" stop-opacity="1"/><stop offset="1" stop-color="#b400ff" stop-opacity="1"/></linearGradient><linearGradient id="grad8" gradientUnits="userSpaceOnUse" x1="0" y1="0" x2="1" y2="0" spreadMethod="pad"><stop offset="0" stop-color="#ff0000" stop-opacity="0.8"/><stop offset="0.25" stop-color="#ffff00" stop-opacity="0.8"/><stop offset="0.5" stop-color="#00ff00" stop-opacity="0.8"/><stop offset="0.75" stop-color="#0000ff" stop-opacity="0.8"/><stop offset="1" stop-color="#ff0000" stop-opacity="0.8"/></linearGradient><linearGradient id="grad9" gradientUnits="userSpaceOnUse" x1="0" y1="85.333" x2="64" y2="170.667" spreadMethod="pad"><stop offset="0" stop-color="#ff0000" stop-opacity="1"/><stop offset="0.2" stop-color="#ffb400" stop-opacity="1"/><stop offset="0.4" stop-color="#ffff00" stop-opacity="1"/><stop offset="0.6" stop-color="#00ff00" stop-opacity="1"/><stop offset="0.8" stop-color="#00b4ff" stop-opacity="1"/><stop offset="1" stop-color="#b400ff" stop-opacity="1"/></linearGradient><linearGradient id="grad10" gradientUnits="userSpaceOnUse" x1="0" y1="0" x2="1" y2="0" spreadMethod="pad"><stop offset="0" stop-color="#ff0000" stop-opacity="0.9"/><stop offset="0.25" stop-color="#ffff00" stop-opacity="0.9"/><stop offset="0.5" stop-color="#00ff00" stop-opacity="0.9"/><stop offset="0.75" stop-color="#0000ff" stop-opacity="0.9"/><stop offset="1" stop-color="#ff0000" stop-opacity="0.9"/></linearGradient><linearGradient id="grad11" gradientUnits="userSpaceOnUse" x1="64" y1="85.333" x2="128" y2="170.667" spreadMethod="pad"><stop offset="0" stop-color="#ff0000" stop-opacity="1"/><stop offset="0.2" stop-color="#ffb400" stop-opacity="1"/><stop offset="0.4" stop-color="#ffff00" stop-opacity="1"/><stop offset="0.6" stop-color="#00ff00" stop-opacity="1"/><stop offset="0.8" stop-color="#00b4ff" stop-opacity="1"/><stop offset="1" stop-color="#b400ff" stop-opacity="1"/></linearGradient><linearGradient id="grad12" gradientUnits="userSpaceOnUse" x1="0" y1="0" x2="1" y2="0" spreadMethod="pad"><stop offset="0" stop-color="#ff0000" stop-opacity="0.9"/><stop offset="0.25" stop-color="#ffff00" stop-opacity="0.9"/><stop offset="0.5" stop-color="#00ff00" stop-opacity="0.9"/><stop offset="0.75" stop-color="#0000ff" stop-opacity="0.9"/><stop offset="1" stop-color="#ff0000" stop-opacity="0.9"/></linearGradient><linearGradient id="grad13" gradientUnits="userSpaceOnUse" x1="128" y1="85.333" x2="192" y2="170.667" spreadMethod="pad"><stop offset="0" stop-color="#ff0000" stop-opacity="1"/><stop offset="0.2" stop-color="#ffb400" stop-opacity="1"/><stop offset="0.4" stop-color="#ffff00" stop-opacity="1"/><stop offset="0.6" stop-color="#00ff00" stop-opacity="1"/><stop offset="0.8" stop-color="#00b4ff" stop-opacity="1"/><stop offset="1" stop-color="#b400ff" stop-opacity="1"/></linearGradient><linearGradient id="grad14" gradientUnits="userSpaceOnUse" x1="0" y1="0" x2="1" y2="0" spreadMethod="pad"><stop offset="0" stop-color="#ff0000" stop-opacity="0.9"/><stop offset="0.25" stop-color="#ffff00" stop-opacity="0.9"/><stop offset="0.5" stop-color="#00ff00" stop-opacity="0.9"/><stop offset="0.75" stop-color="#0000ff" stop-opacity="0.9"/><stop offset="1" stop-color="#ff0000" stop-opacity="0.9"/></linearGradient><linearGradient id="grad15" gradientUnits="userSpaceOnUse" x1="192" y1="85.333" x2="256" y2="170.667" spreadMethod="pad"><stop offset="0" stop-color="#ff0000" stop-opacity="1"/><stop offset="0.2" stop-color="#ffb400" stop-opacity="1"/><stop offset="0.4" stop-color="#ffff00" stop-opacity="1"/><stop offset="0.6" stop-color="#00ff00" stop-opacity="1"/><stop offset="0.8" stop-color="#00b4ff" stop-opacity="1"/><stop offset="1" stop-color="#b400ff" stop-opacity="1"/></linearGradient><linearGradient id="grad16" gradientUnits="userSpaceOnUse" x1="0" y1="0" x2="1" y2="0" spreadMethod="pad"><stop offset="0" stop-color="#ff0000" stop-opacity="0.9"/><stop offset="0.25" stop-color="#ffff00" stop-opacity="0.9"/><stop offset="0.5" stop-color="#00ff00" stop-opacity="0.9"/><stop offset="0.75" stop-color="#0000ff" stop-opacity="0.9"/><stop offset="1" stop-color="#ff0000" stop-opacity="0.9"/></linearGradient><linearGradient id="grad17" gradientUnits="userSpaceOnUse" x1="0" y1="170.667" x2="64" y2="256" spreadMethod="pad"><stop offset="0" stop-color="#ff0000" stop-opacity="1"/><stop offset="0.2" stop-color="#ffb400" stop-opacity="1"/><stop offset="0.4" stop-color="#ffff00" stop-opacity="1"/><stop offset="0.6" stop-color="#00ff00" stop-opacity="1"/><stop offset="0.8" stop-color="#00b4ff" stop-opacity="1"/><stop offset="1" stop-color="#b400ff" stop-opacity="1"/></linearGradient><linearGradient id="grad18" gradientUnits="userSpaceOnUse" x1="0" y1="0" x2="1" y2="0" spreadMethod="pad"><stop offset="0" stop-color="#ff0000" stop-opacity="0.9"/><stop offset="0.25" stop-color="#ffff00" stop-opacity="0.9"/><stop offset="0.5" stop-color="#00ff00" stop-opacity="0.9"/><stop offset="0.75" stop-color="#0000ff" stop-opacity="0.9"/><stop offset="1" stop-color="#ff0000" stop-opacity="0.9"/></linearGradient><linearGradient id="grad19" gradientUnits="userSpaceOnUse" x1="64" y1="170.667" x2="128" y2="256" spreadMethod="pad"><stop offset="0" stop-color="#ff0000" stop-opacity="1"/><stop offset="0.2" stop-color="#ffb400" stop-opacity="1"/><stop offset="0.4" stop-color="#ffff00" stop-opacity="1"/><stop offset="0.6" stop-color="#00ff00" stop-opacity="1"/><stop offset="0.8" stop-color="#00b4ff" stop-opacity="1"/><stop offset="1" stop-color="#b400ff" stop-opacity="1"/></linearGradient><linearGradient id="grad20" gradientUnits="userSpaceOnUse" x1="0" y1="0" x2="1" y2="0" spreadMethod="pad"><stop offset="0" stop-color="#ff0000" stop-opacity="0.9"/><stop offset="0.25" stop-color="#ffff00" stop-opacity="0.9"/><stop offset="0.5" stop-color="#00ff00" stop-opacity="0.9"/><stop offset="0.75" stop-color="#0000ff" stop-opacity="0.9"/><stop offset="1" stop-color="#ff0000" stop-opacity="0.9"/></linearGradient><linearGradient id="grad21" gradientUnits="userSpaceOnUse" x1="128" y1="170.667" x2="192" y2="256" spreadMethod="pad"><stop offset="0" stop-color="#ff0000" stop-opacity="1"/><stop offset="0.2" stop-color="#ffb400" stop-opacity="1"/><stop offset="0.4" stop-color="#ffff00" stop-opacity="1"/><stop offset="0.6" stop-color="#00ff00" stop-opacity="1"/><stop offset="0.8" stop-color="#00b4ff" stop-opacity="1"/><stop offset="1" stop-color="#b400ff" stop-opacity="1"/></linearGradient><linearGradient id="grad22" gradientUnits="userSpaceOnUse" x1="0" y1="0" x2="1" y2="0" spreadMethod="pad"><stop offset="0" stop-color="#ff0000" stop-opacity="0.9"/><stop offset="0.25" stop-color="#ffff00" stop-opacity="0.9"/><stop offset="0.5" stop-color="#00ff00" stop-opacity="0.9"/><stop offset="0.75" stop-color="#0000ff" stop-opacity="0.9"/><stop offset="1" stop-color="#ff0000" stop-opacity="0.9"/></linearGradient><linearGradient id="grad23" gradientUnits="userSpaceOnUse" x1="192" y1="170.667" x2="256" y2="256" spreadMethod="pad"><stop offset="0" stop-color="#ff0000" stop-opacity="1"/><stop offset="0.2" stop-color="#ffb400" stop-opacity="1"/><stop offset="0.4" stop-color="#ffff00" stop-opacity="1"/><stop offset="0.6" stop-color="#00ff00" stop-opacity="1"/><stop offset="0.8" stop-color="#00b4ff" stop-opacity="1"/><stop offset="1" stop-color="#b400ff" stop-opacity="1"/></linearGradient><linearGradient id="grad24" gradientUnits="userSpaceOnUse" x1="0" y1="0" x2="1" y2="0" spreadMethod="pad"><stop offset="0" stop-color="#ff0000" stop-opacity="0.9"/><stop offset="0.25" stop-color="#ffff00" stop-opacity="0.9"/><stop offset="0.5" stop-color="#00ff00" stop-opacity="0.9"/><stop offset="0.75" stop-color="#0000ff" stop-opacity="0.9"/><stop offset="1" stop-color="#ff0000" stop-opacity="0.9"/></linearGradient></defs><path d="M0 0L256 0L256 256L0 256Z" fill-rule="nonzero" fill="#0c0c0e"/><path d="M6 20C6 12.268 12.268 6 20 6L44 6C51.732 6 58 12.268 58 20L58 65.333C58 73.065 51.732 79.333 44 79.333L20 79.333C12.268 79.333 6 73.065 6 65.333Z" fill-rule="nonzero" fill="url(#grad1)"/><path d="M47.36 42.667C47.36 51.144 40.477 58.027 32 58.027C23.523 58.027 16.64 51.144 16.64 42.667C16.64 34.189 23.523 27.307 32 27.307C40.477 27.307 47.36 34.189 47.36 42.667Z" fill-rule="nonzero" fill="url(#grad2)"/><path d="M70 20C70 12.268 76.268 6 84 6L108 6C115.732 6 122 12.268 122 20L122 65.333C122 73.065 115.732 79.333 108 79.333L84 79.333C76.268 79.333 70 73.065 70 65.333Z" fill-rule="nonzero" fill="url(#grad3)"/><path d="M111.36 42.667C111.36 51.144 104.477 58.027 96 58.027C87.523 58.027 80.64 51.144 80.64 42.667C80.64 34.189 87.523 27.307 96 27.307C104.477 27.307 111.36 34.189 111.36 42.667Z" fill-rule="nonzero" fill="url(#grad4)"/><path d="M134 20C134 12.268 140.268 6 148 6L172 6C179.732 6 186 12.268 186 20L186 65.333C186 73.065 179.732 79.333 172 79.333L148 79.333C140.268 79.333 134 73.065 134 65.333Z" fill-rule="nonzero" fill="url(#grad5)"/><path d="M175.36 42.667C175.36 51.144 168.477 58.027 160 58.027C151.523 58.027 144.64 51.144 144.64 42.667C144.64 34.189 151.523 27.307 160 27.307C168.477 27.307 175.36 34.189 175.36 42.667Z" fill-rule="nonzero" fill="url(#grad6)"/><path d="M198 20C198 12.268 204.268 6 212 6L236 6C243.732 6 250 12.268 250 20L250 65.333C250 73.065 243.732 79.333 236 79.333L212 79.333C204.268 79.333 198 73.065 198 65.333Z" fill-rule="nonzero" fill="url(#grad7)"/><path d="M239.36 42.667C239.36 51.144 232.477 58.027 224 58.027C215.523 58.027 208.64 51.144 208.64 42.667C208.64 34.189 215.523 27.307 224 27.307C232.477 27.307 239.36 34.189 239.36 42.667Z" fill-rule="nonzero" fill="url(#grad8)"/><path d="M6 105.333C6 97.601 12.268 91.333 20 91.333L44 91.333C51.732 91.333 58 97.601 58 105.333L58 150.667C58 158.399 51.732 164.667 44 164.667L20 164.667C12.268 164.667 6 158.399 6 150.667Z" fill-rule="nonzero" fill="url(#grad9)"/><path d="M47.36 128C47.36 136.477 40.477 143.36 32 143.36C23.523 143.36 16.64 136.477 16.64 128C16.64 119.523 23.523 112.64 32 112.64C40.477 112.64 47.36 119.523 47.36 128Z" fill-rule="nonzero" fill="url(#grad10)" style="mix-blend-mode:multiply"/><path d="M70 105.333C70 97.601 76.268 91.333 84 91.333L108 91.333C115.732 91.333 122 97.601 122 105.333L122 150.667C122 158.399 115.732 164.667 108 164.667L84 164.667C76.268 164.667 70 158.399 70 150.667Z" fill-rule="nonzero" fill="url(#grad11)"/><path d="M111.36 128C111.36 136.477 104.477 143.36 96 143.36C87.523 143.36 80.64 136.477 80.64 128C80.64 119.523 87.523 112.64 96 112.64C104.477 112.64 111.36 119.523 111.36 128Z" fill-rule="nonzero" fill="url(#grad12)" style="mix-blend-mode:screen"/><path d="M134 105.333C134 97.601 140.268 91.333 148 91.333L172 91.333C179.732 91.333 186 97.601 186 105.333L186 150.667C186 158.399 179.732 164.667 172 164.667L148 164.667C140.268 164.667 134 158.399 134 150.667Z" fill-rule="nonzero" fill="url(#grad13)"/><path d="M175.36 128C175.36 136.477 168.477 143.36 160 143.36C151.523 143.36 144.64 136.477 144.64 128C144.64 119.523 151.523 112.64 160 112.64C168.477 112.64 175.36 119.523 175.36 128Z" fill-rule="nonzero" fill="url(#grad14)" style="mix-blend-mode:overlay"/><path d="M198 105.333C198 97.601 204.268 91.333 212 91.333L236 91.333C243.732 91.333 250 97.601 250 105.333L250 150.667C250 158.399 243.732 164.667 236 164.667L212 164.667C204.268 164.667 198 158.399 198 150.667Z" fill-rule="nonzero" fill="url(#grad15)"/><path d="M239.36 128C239.36 136.477 232.477 143.36 224 143.36C215.523 143.36 208.64 136.477 208.64 128C208.64 119.523 215.523 112.64 224 112.64C232.477 112.64 239.36 119.523 239.36 128Z" fill-rule="nonzero" fill="url(#grad16)" style="mix-blend-mode:darken"/><path d="M6 190.667C6 182.935 12.268 176.667 20 176.667L44 176.667C51.732 176.667 58 182.935 58 190.667L58 236C58 243.732 51.732 250 44 250L20 250C12.268 250 6 243.732 6 236Z" fill-rule="nonzero" fill="url(#grad17)"/><path d="M47.36 213.333C47.36 221.811 40.477 228.693 32 228.693C23.523 228.693 16.64 221.811 16.64 213.333C16.64 204.856 23.523 197.973 32 197.973C40.477 197.973 47.36 204.856 47.36 213.333Z" fill-rule="nonzero" fill="url(#grad18)" style="mix-blend-mode:lighten"/><path d="M70 190.667C70 182.935 76.268 176.667 84 176.667L108 176.667C115.732 176.667 122 182.935 122 190.667L122 236C122 243.732 115.732 250 108 250L84 250C76.268 250 70 243.732 70 236Z" fill-rule="nonzero" fill="url(#grad19)"/><path d="M111.36 213.333C111.36 221.811 104.477 228.693 96 228.693C87.523 228.693 80.64 221.811 80.64 213.333C80.64 204.856 87.523 197.973 96 197.973C104.477 197.973 111.36 204.856 111.36 213.333Z" fill-rule="nonzero" fill="url(#grad20)" style="mix-blend-mode:color-dodge"/><path d="M134 190.667C134 182.935 140.268 176.667 148 176.667L172 176.667C179.732 176.667 186 182.935 186 190.667L186 236C186 243.732 179.732 250 172 250L148 250C140.268 250 134 243.732 134 236Z" fill-rule="nonzero" fill="url(#grad21)"/><path d="M175.36 213.333C175.36 221.811 168.477 228.693 160 228.693C151.523 228.693 144.64 221.811 144.64 213.333C144.64 204.856 151.523 197.973 160 197.973C168.477 197.973 175.36 204.856 175.36 213.333Z" fill-rule="nonzero" fill="url(#grad22)" style="mix-blend-mode:color-burn"/><path d="M198 190.667C198 182.935 204.268 176.667 212 176.667L236 176.667C243.732 176.667 250 182.935 250 190.667L250 236C250 243.732 243.732 250 236 250L212 250C204.268 250 198 243.732 198 236Z" fill-rule="nonzero" fill="url(#grad23)"/><path d="M239.36 213.333C239.36 221.811 232.477 228.693 224 228.693C215.523 228.693 208.64 221.811 208.64 213.333C208.64 204.856 215.523 197.973 224 197.973C232.477 197.973 239.36 204.856 239.36 213.333Z" fill-rule="nonzero" fill="url(#grad24)" style="mix-blend-mode:hard-light"/></svg>