<svg xmlns="http://www.w3.org/2000/svg" width="256" height="256" viewBox="0 0 256 256">
<path d="M0 0L256 0L256 256L0 256Z" fill-rule="nonzero" fill="#f7f1e8"/><path d="M18 46L43.2 46L43.2 88L18 88Z" fill-rule="nonzero" fill="#1c2024"/><path d="M28.192 46L53.392 46L53.392 88L28.192 88Z" fill-rule="nonzero" fill="#1c2024"/><path d="M65.004 46L90.204 46L90.204 88L65.004 88Z" fill-rule="nonzero" fill="#1c2024"/><path d="M87.85 46L113.05 46L113.05 88L87.85 88Z" fill-rule="nonzero" fill="#1c2024"/><path d="M111.413 46L136.613 46L136.613 88L111.413 88Z" fill-rule="nonzero" fill="#1c2024"/><path d="M121.605 46L146.805 46L146.805 88L121.605 88Z" fill-rule="nonzero" fill="#1c2024"/><path d="M144.779 46L169.979 46L169.979 88L144.779 88Z" fill-rule="nonzero" fill="#1c2024"/><path d="M12.48 138L32.88 138L42.4 172L22 172Z" stroke="#b24a1e" fill="none" stroke-width="1.5" stroke-linecap="round" stroke-linejoin="round"/><path d="M31.555 138L51.955 138L61.475 172L41.075 172Z" stroke="#b24a1e" fill="none" stroke-width="1.5" stroke-linecap="round" stroke-linejoin="round"/><path d="M39.806 138L60.206 138L69.726 172L49.326 172Z" stroke="#b24a1e" fill="none" stroke-width="1.5" stroke-linecap="round" stroke-linejoin="round"/><path d="M55.893 138L76.293 138L85.813 172L65.413 172Z" stroke="#b24a1e" fill="none" stroke-width="1.5" stroke-linecap="round" stroke-linejoin="round"/><path d="M74.968 138L95.368 138L104.888 172L84.488 172Z" stroke="#b24a1e" fill="none" stroke-width="1.5" stroke-linecap="round" stroke-linejoin="round"/><path d="M93.695 138L114.095 138L123.615 172L103.215 172Z" stroke="#b24a1e" fill="none" stroke-width="1.5" stroke-linecap="round" stroke-linejoin="round"/><path d="M102.112 138L122.512 138L132.032 172L111.632 172Z" stroke="#b24a1e" fill="none" stroke-width="1.5" stroke-linecap="round" stroke-linejoin="round"/><path d="M113.617 138L134.017 138L143.537 172L123.137 172Z" stroke="#b24a1e" fill="none" stroke-width="1.5" stroke-linecap="round" stroke-linejoin="round"/><path d="M132.36 138L152.76 138L162.28 172L141.88 172Z" stroke="#b24a1e" fill="none" stroke-width="1.5" stroke-linecap="round" stroke-linejoin="round"/></svg>